The Borgias S02E10 HDTV XviD Atilla82


The Borgias (2011)

The saga of a crime family in 1492 Italy.
 
http://www.imdb.com/title/tt1582457/ [rate:7.9/10] 9,628 votes
 



language: English


General
Complete name : The.Borgias.S02E10.HDTV.XviD-Atilla82.avi
Format : AVI
Format/Info : Audio Video Interleave
File size : 411 MiB
Duration : 57mn 44s
Overall bit rate : 995 Kbps
Writing application : VirtualDubMod 1.5.10.2 (build 2540/release)
Writing library : VirtualDubMod build 2540/release

Video
ID : 0
Format : MPEG-4 Visual
Format profile : Advanced Simple@L5
Format settings, BVOP : No
Format settings, QPel : Yes
Format settings, GMC : No warppoints
Format settings, Matrix : Default (H.263)
Codec ID : XVID
Codec ID/Hint : XviD
Duration : 57mn 44s
Bit rate : 761 Kbps
Width : 680 pixels
Height : 380 pixels
Display aspect ratio : 16:9
Frame rate : 23.976 fps
Color space : YUV
Chroma subsampling : 4:2:0
Bit depth : 8 bits
Scan type : Progressive
Compression mode : Lossy
Bits/(Pixel*Frame) : 0.123
Stream size : 314 MiB (77%)
Writing library : XviD 64

Audio
ID : 1
Format : AC-3
Format/Info : Audio Coding 3
Mode extension : CM (complete main)
Format settings, Endianness : Big
Codec ID : 2000
Duration : 57mn 44s
Bit rate mode : Constant
Bit rate : 224 Kbps
Channel(s) : 2 channels
Channel positions : Front: L R
Sampling rate : 48.0 KHz
Bit depth : 16 bits
Compression mode : Lossy
Stream size : 92.5 MiB (23%)
Alignment : Split accross interleaves
Interleave, duration : 42 ms (1.00 video frame)
Interleave, preload duration : 500 ms




SCREENSHOTS 
http://www.pohrani.com/f/M/N3/2X7vjuaE/theborgiass02e10hdtvxvid.jpg


